<svg width="24" height="24" viewBox="0 0 24 24" fill="none" xmlns="http://www.w3.org/2000/svg">
<g id="calendar">
<rect width="24" height="24" rx="12" fill="white" fill-opacity="0.1"/>
<g id="Calendar">
<path id="Vector" d="M14.4331 5.33335C14.7161 5.33268 14.9399 5.55257 14.9406 5.84576L14.9413 6.34551C16.7777 6.48943 17.9908 7.74081 17.9928 9.65985L18 15.277C18.0026 17.3693 16.6882 18.6567 14.5812 18.66L9.43459 18.6667C7.3408 18.6693 6.00988 17.3513 6.00725 15.253L6 9.70183C5.99738 7.77013 7.16769 6.52208 9.00412 6.3535L9.00346 5.85375C9.0028 5.56057 9.22001 5.34001 9.50963 5.34001C9.79925 5.33934 10.0165 5.55923 10.0171 5.85242L10.0178 6.31885L13.9276 6.31352L13.9269 5.84709C13.9263 5.5539 14.1435 5.33401 14.4331 5.33335ZM14.7017 14.7946H14.6951C14.3923 14.8019 14.1494 15.0558 14.156 15.3623C14.1567 15.6688 14.4009 15.9214 14.7036 15.928C15.0123 15.9274 15.2625 15.6735 15.2618 15.3603C15.2618 15.0471 15.011 14.7946 14.7017 14.7946ZM9.27794 14.7953C8.97516 14.8086 8.7382 15.0625 8.73886 15.369C8.75268 15.6755 9.0028 15.9154 9.30558 15.9014C9.60244 15.8881 9.83874 15.6342 9.82492 15.3277C9.81834 15.0278 9.57414 14.7946 9.27794 14.7953ZM11.9898 14.7919C11.687 14.8059 11.4507 15.0591 11.4507 15.3657C11.4645 15.6722 11.7147 15.9114 12.0174 15.8981C12.3136 15.8841 12.5506 15.6309 12.5368 15.3237C12.5302 15.0245 12.286 14.7913 11.9898 14.7919ZM9.27465 12.3965C8.97187 12.4098 8.73557 12.6637 8.73622 12.9702C8.74939 13.2767 9.00017 13.5166 9.30295 13.5026C9.59915 13.4893 9.83545 13.2354 9.82163 12.9289C9.81504 12.629 9.5715 12.3958 9.27465 12.3965ZM11.9872 12.3732C11.6844 12.3865 11.4474 12.6404 11.4481 12.9469C11.4612 13.2534 11.712 13.4926 12.0148 13.4793C12.311 13.4653 12.5473 13.2121 12.5341 12.9056C12.5269 12.6057 12.2834 12.3725 11.9872 12.3732ZM14.699 12.3765C14.3962 12.3831 14.1593 12.6297 14.1599 12.9362V12.9435C14.1665 13.25 14.4167 13.4826 14.7201 13.4759C15.0163 13.4686 15.2526 13.2147 15.246 12.9082C15.2322 12.615 14.9946 12.3758 14.699 12.3765ZM13.9289 7.33967L10.0191 7.34501L10.0198 7.88407C10.0198 8.17126 9.8032 8.39781 9.51358 8.39781C9.22396 8.39848 9.00609 8.17259 9.00609 7.8854L9.00543 7.37233C7.72191 7.50093 7.01169 8.25522 7.01366 9.70049L7.01432 9.90772L16.9798 9.8944V9.66118C16.9514 8.22856 16.2327 7.47694 14.9426 7.365L14.9432 7.87807C14.9432 8.1646 14.7201 8.39181 14.4371 8.39181C14.1474 8.39248 13.9296 8.16593 13.9296 7.8794L13.9289 7.33967Z" fill="white"/>
</g>
</g>
</svg>
