<svg width="24" height="32" viewBox="0 0 24 32" fill="none" xmlns="http://www.w3.org/2000/svg">
<path id="Vector" d="M5.38773 11.1813L5.30971 10.7375L4.97444 11.0386C4.37347 11.5785 3.83475 12.1831 3.35836 12.8521C2.88267 13.5201 2.48275 14.2235 2.15891 14.9621C1.83507 15.7008 1.58764 16.4739 1.41646 17.2811C1.24506 18.0895 1.15942 18.9125 1.15942 19.75C1.15942 20.8064 1.29259 21.8247 1.55961 22.804C1.82542 23.779 2.19127 24.6955 2.65746 25.553C3.12502 26.413 3.69796 27.1886 4.37605 27.8793C5.05117 28.5668 5.7932 29.1651 6.6019 29.6736C7.41409 30.1842 8.28824 30.5746 9.22357 30.8447C10.1602 31.1151 11.1341 31.25 12.1444 31.25C13.1556 31.25 14.1303 31.11 15.0676 30.8293C16.0001 30.5501 16.8765 30.1659 17.696 29.6766C18.518 29.1857 19.2587 28.5847 19.9177 27.8741C20.5737 27.1666 21.1441 26.3895 21.6286 25.5432C22.1152 24.6934 22.4868 23.7794 22.7437 22.8018C23.001 21.8231 23.1294 20.8056 23.1294 19.75C23.1294 17.972 22.8164 16.3276 22.1876 14.8198C21.5604 13.3162 20.6584 11.9339 19.4839 10.6733C18.3474 9.45346 17.4789 8.12086 16.876 6.67525C16.2748 5.23389 15.9727 3.65564 15.9727 1.9375V1V0.75H15.7227L14.8281 0.74999L14.8259 0.75001C13.6747 0.760064 12.5964 0.991557 11.5939 1.44614C10.5962 1.89854 9.71754 2.51738 8.95939 3.30185C8.20014 4.08746 7.60531 5.00819 7.17451 6.06162C6.7423 7.11851 6.52691 8.24455 6.52691 9.4375H6.52686L6.52695 9.44227C6.53646 9.9402 6.57449 10.4148 6.64144 10.8658C6.70909 11.3216 6.82033 11.7627 6.97526 12.1889C7.12766 12.6082 7.30387 13.0174 7.50388 13.4167C7.70416 13.8165 7.93727 14.2201 8.20286 14.6277L8.20702 14.6341L8.21156 14.6402C8.26333 14.71 8.29566 14.7735 8.31385 14.8307C8.33253 14.8894 8.34364 14.9596 8.34401 15.0434C8.33585 15.2497 8.26804 15.4157 8.14299 15.554C8.02297 15.6868 7.88084 15.75 7.69944 15.75C7.48247 15.75 7.31296 15.6669 7.17244 15.4836C6.95502 15.1891 6.74602 14.8701 6.54558 14.5264C6.34762 14.1869 6.1764 13.8282 6.03202 13.4499C5.8854 13.0658 5.75723 12.6819 5.64743 12.2984C5.53782 11.9155 5.45133 11.5432 5.38773 11.1813ZM17.8615 12.3487L17.8622 12.3493C18.8294 13.363 19.5667 14.4893 20.0762 15.7288C20.5846 16.9657 20.8401 18.3049 20.8402 19.749C20.831 21.0282 20.6034 22.2172 20.1594 23.3186C19.7144 24.4227 19.0934 25.3864 18.2965 26.2121C17.4985 27.0388 16.5742 27.6894 15.522 28.1647C14.4751 28.6376 13.3505 28.8749 12.1454 28.875C10.9293 28.8654 9.79879 28.6278 8.75113 28.164C7.70057 27.6989 6.78217 27.0494 5.99429 26.2142C5.20534 25.3779 4.58341 24.4079 4.12868 23.3024C3.67606 22.2019 3.44875 21.019 3.44859 19.7514C3.45779 18.9216 3.56247 18.1066 3.76262 17.3057C3.92403 16.6599 4.15662 16.0489 4.46038 15.4724C4.57385 15.6888 4.69081 15.9052 4.81124 16.1216C5.01525 16.4881 5.24929 16.8205 5.51372 17.1182C5.78532 17.4239 6.09888 17.6681 6.45383 17.8488C6.81982 18.0351 7.2362 18.1246 7.69628 18.125C8.11422 18.1352 8.50318 18.0547 8.85836 17.8795C9.20034 17.7108 9.50714 17.4894 9.77801 17.216C10.0535 16.938 10.2671 16.6123 10.4189 16.2411C10.5717 15.8676 10.6472 15.469 10.6472 15.0479H10.6473L10.6471 15.0408C10.6371 14.6874 10.5824 14.3594 10.48 14.059C10.3789 13.7623 10.233 13.4781 10.0439 13.2067C9.63556 12.6075 9.32968 12.0121 9.12364 11.4207C8.92007 10.8363 8.8162 10.1767 8.81607 9.4389C8.82523 8.63512 8.95604 7.8819 9.20693 7.17765C9.45795 6.47299 9.82047 5.84005 10.2948 5.27733C10.7705 4.71291 11.3217 4.24815 11.949 3.88191C12.4981 3.56127 13.0926 3.34165 13.7341 3.22346C13.8868 4.94461 14.2961 6.55247 14.9633 8.04536C15.6649 9.61518 16.6315 11.0497 17.8615 12.3487Z" fill="#FCBD1B" stroke="#FCBD1B" stroke-width="0.5"/>
</svg>
