<svg width="36" height="36" viewBox="0 0 36 36" fill="none" xmlns="http://www.w3.org/2000/svg">
<g id="Icons / healthicons:exercise-running-outline">
<g id="Group">
<path id="Vector" d="M20.8344 16.659C20.9559 16.7723 21.0781 16.8795 21.2034 16.9793C22.1709 17.7555 23.2051 18.0893 24.1899 18.1418C25.8474 18.2303 27.3219 17.4908 27.9211 17.1893L28.0899 17.1068C28.4497 16.9371 28.7274 16.6314 28.8618 16.257C28.9963 15.8826 28.9765 15.4701 28.8069 15.1103C28.6372 14.7504 28.3315 14.4727 27.9571 14.3383C27.5827 14.2038 27.1702 14.2236 26.8104 14.3933L26.5599 14.5133C25.8969 14.8335 25.1596 15.189 24.3496 15.1463C23.9559 15.1245 23.5314 15.0008 23.0806 14.6393C22.6119 14.2628 22.0516 13.578 21.5101 12.3353C21.0714 11.3288 20.4174 10.5488 19.4889 10.1055C18.5994 9.68101 17.6529 9.66301 16.8091 9.76351C14.5479 10.032 12.8296 11.343 11.6611 12.561C10.6989 13.563 9.98111 14.6505 9.62861 15.1838C9.55736 15.2925 9.50111 15.378 9.46061 15.435C9.23833 15.7604 9.15305 16.1603 9.22321 16.5481C9.29336 16.9359 9.51332 17.2805 9.83553 17.5074C10.1577 17.7343 10.5563 17.8253 10.9451 17.7608C11.3339 17.6962 11.6816 17.4812 11.9131 17.1623C11.9971 17.0438 12.0894 16.905 12.1921 16.7498C12.5671 16.1858 13.0809 15.4133 13.8256 14.6378C14.4121 14.0265 15.0691 13.4978 15.7921 13.1505L15.2424 14.667C14.6874 16.2015 14.0701 17.922 13.9704 18.267C13.9038 18.5003 13.8894 18.7453 13.9284 18.9848C13.9516 19.1363 13.9921 19.2645 14.0244 19.3545C14.0881 19.533 14.1729 19.7025 14.2479 19.839C14.4009 20.121 14.6109 20.4458 14.8366 20.775C15.2941 21.4433 15.9106 22.2645 16.5219 23.0595C17.0619 23.7608 17.6116 24.459 18.0639 25.0335L18.2446 25.2638C18.4876 25.572 18.6909 25.8308 18.8401 26.025C18.9076 26.112 18.9526 26.1735 18.9826 26.2125C19.0119 26.3123 19.0486 26.457 19.0929 26.6468C19.1806 27.024 19.2811 27.5145 19.3876 28.0538C19.4566 28.4003 19.5279 28.77 19.5976 29.1353C19.7401 29.8725 19.8789 30.5925 19.9854 31.074C20.0279 31.2664 20.1079 31.4484 20.2208 31.6099C20.3338 31.7713 20.4774 31.9089 20.6435 32.0148C20.8096 32.1208 20.9949 32.1929 21.1889 32.2272C21.3829 32.2615 21.5818 32.2573 21.7741 32.2148C21.9665 32.1722 22.1486 32.0922 22.31 31.9793C22.4714 31.8663 22.609 31.7227 22.7149 31.5566C22.8209 31.3905 22.893 31.2052 22.9273 31.0112C22.9616 30.8172 22.9574 30.6184 22.9149 30.426C22.8174 29.9835 22.6921 29.3385 22.5564 28.632C22.4836 28.2555 22.4079 27.8618 22.3314 27.4725C22.2338 26.9691 22.1282 26.4673 22.0149 25.9673C21.9696 25.7684 21.9191 25.5709 21.8634 25.3748C21.8259 25.2488 21.7494 24.9863 21.6189 24.7575C21.4977 24.5658 21.366 24.381 21.2244 24.204L21.2169 24.195C21.0564 23.9858 20.8434 23.715 20.6019 23.4083L20.4196 23.1765C19.8506 22.4558 19.2861 21.7315 18.7261 21.0038L20.8344 16.659ZM15.5296 25.7475L13.3884 22.7723L12.7734 24.5415L9.04286 23.6648C8.65558 23.5738 8.24801 23.6403 7.90981 23.8498C7.57161 24.0593 7.33049 24.3946 7.23948 24.7819C7.14848 25.1692 7.21505 25.5767 7.42455 25.9149C7.63406 26.2531 7.96933 26.4943 8.35661 26.5853L13.4026 27.771C13.7636 27.8557 14.1432 27.8038 14.4681 27.6251C14.793 27.4464 15.0403 27.1537 15.1621 26.8035L15.5296 25.7475Z" stroke="white" stroke-width="2" stroke-linecap="round" stroke-linejoin="round"/>
<path id="Vector_2" fill-rule="evenodd" clip-rule="evenodd" d="M23.0747 10C23.6714 10 24.2437 9.76296 24.6657 9.34101C25.0877 8.91905 25.3247 8.34675 25.3247 7.75002C25.3247 7.15328 25.0877 6.58098 24.6657 6.15903C24.2437 5.73707 23.6714 5.50002 23.0747 5.50002C22.478 5.50002 21.9057 5.73707 21.4837 6.15903C21.0618 6.58098 20.8247 7.15328 20.8247 7.75002C20.8247 8.34675 21.0618 8.91905 21.4837 9.34101C21.9057 9.76296 22.478 10 23.0747 10ZM23.0747 11.5C24.0693 11.5 25.0231 11.1049 25.7264 10.4017C26.4296 9.6984 26.8247 8.74458 26.8247 7.75002C26.8247 6.75545 26.4296 5.80163 25.7264 5.09836C25.0231 4.3951 24.0693 4.00002 23.0747 4.00002C22.0801 4.00002 21.1263 4.3951 20.4231 5.09836C19.7198 5.80163 19.3247 6.75545 19.3247 7.75002C19.3247 8.74458 19.7198 9.6984 20.4231 10.4017C21.1263 11.1049 22.0801 11.5 23.0747 11.5Z" fill="white" stroke="white" stroke-width="0.2"/>
</g>
</g>
</svg>
