<svg width="36" height="16" viewBox="0 0 36 16" fill="none" xmlns="http://www.w3.org/2000/svg">
<g id="ic:baseline-search">
<path id="Vector" d="M23.25 9.14966H22.065L21.645 8.98538C23.1658 8.26984 24.0017 7.35635 24 6.41159C24 5.62937 23.4282 4.86472 22.3568 4.21432C21.2855 3.56393 19.7627 3.05701 17.9812 2.75766C16.1996 2.45832 14.2392 2.38 12.3479 2.5326C10.4566 2.6852 8.71927 3.06188 7.35571 3.615C5.99215 4.16811 5.06355 4.87282 4.68735 5.64001C4.31114 6.40721 4.50422 7.20242 5.24218 7.9251C5.98013 8.64778 7.22982 9.26547 8.83319 9.70005C10.4366 10.1346 12.3216 10.3666 14.25 10.3666C16.665 10.3666 18.885 10.0076 20.595 9.4113L21 9.58167V10.0624L28.5 13.0986L30.735 12.192L23.25 9.14966ZM14.25 9.14966C10.515 9.14966 7.5 7.92666 7.5 6.41159C7.5 4.89653 10.515 3.67353 14.25 3.67353C17.985 3.67353 21 4.89653 21 6.41159C21 7.92666 17.985 9.14966 14.25 9.14966Z" fill="#4371CB" fill-opacity="0.5"/>
</g>
</svg>
