<svg width="36" height="36" viewBox="0 0 36 36" fill="none" xmlns="http://www.w3.org/2000/svg">
<g id="Icons / material-symbols:mark-chat-unread-outline-rounded">
<path id="Vector" d="M9 27L5.55 30.45C5.075 30.925 4.531 31.0315 3.918 30.7695C3.305 30.5075 2.999 30.0385 3 29.3625V6C3 5.175 3.294 4.4685 3.882 3.8805C4.47 3.2925 5.176 2.999 6 3H21.15C21.05 3.5 21 4 21 4.5C21 5 21.05 5.5 21.15 6H6V24H30V11.85C30.575 11.725 31.1125 11.556 31.6125 11.343C32.1125 11.13 32.575 10.849 33 10.5V24C33 24.825 32.706 25.5315 32.118 26.1195C31.53 26.7075 30.824 27.001 30 27H9ZM28.5 9C27.25 9 26.1875 8.5625 25.3125 7.6875C24.4375 6.8125 24 5.75 24 4.5C24 3.25 24.4375 2.1875 25.3125 1.3125C26.1875 0.4375 27.25 0 28.5 0C29.75 0 30.8125 0.4375 31.6875 1.3125C32.5625 2.1875 33 3.25 33 4.5C33 5.75 32.5625 6.8125 31.6875 7.6875C30.8125 8.5625 29.75 9 28.5 9Z" fill="white"/>
</g>
</svg>
