<svg width="36" height="36" viewBox="0 0 36 36" fill="none" xmlns="http://www.w3.org/2000/svg">
<g id="Icons / material-symbols:settings-rounded">
<path id="Vector" d="M20.8125 33H15.1875C14.8125 33 14.4875 32.875 14.2125 32.625C13.9375 32.375 13.775 32.0625 13.725 31.6875L13.275 28.2C12.95 28.075 12.6435 27.925 12.3555 27.75C12.0675 27.575 11.7865 27.3875 11.5125 27.1875L8.25002 28.5375C7.90002 28.6625 7.55002 28.675 7.20002 28.575C6.85002 28.475 6.57502 28.2625 6.37502 27.9375L3.60002 23.1C3.40002 22.775 3.33752 22.425 3.41252 22.05C3.48752 21.675 3.67502 21.375 3.97502 21.15L6.78752 19.0125C6.76252 18.8375 6.75002 18.6685 6.75002 18.5055V17.4945C6.75002 17.3315 6.76252 17.1625 6.78752 16.9875L3.97502 14.85C3.67502 14.625 3.48752 14.325 3.41252 13.95C3.33752 13.575 3.40002 13.225 3.60002 12.9L6.37502 8.0625C6.55002 7.7125 6.81852 7.4935 7.18052 7.4055C7.54252 7.3175 7.89902 7.3365 8.25002 7.4625L11.5125 8.8125C11.7875 8.6125 12.075 8.425 12.375 8.25C12.675 8.075 12.975 7.925 13.275 7.8L13.725 4.3125C13.775 3.9375 13.9375 3.625 14.2125 3.375C14.4875 3.125 14.8125 3 15.1875 3H20.8125C21.1875 3 21.5125 3.125 21.7875 3.375C22.0625 3.625 22.225 3.9375 22.275 4.3125L22.725 7.8C23.05 7.925 23.3565 8.075 23.6445 8.25C23.9325 8.425 24.2135 8.6125 24.4875 8.8125L27.75 7.4625C28.1 7.3375 28.45 7.325 28.8 7.425C29.15 7.525 29.425 7.7375 29.625 8.0625L32.4 12.9C32.6 13.225 32.6625 13.575 32.5875 13.95C32.5125 14.325 32.325 14.625 32.025 14.85L29.2125 16.9875C29.2375 17.1625 29.25 17.3315 29.25 17.4945V18.5055C29.25 18.6685 29.225 18.8375 29.175 19.0125L31.9875 21.15C32.2875 21.375 32.475 21.675 32.55 22.05C32.625 22.425 32.5625 22.775 32.3625 23.1L29.5875 27.9C29.3875 28.225 29.106 28.444 28.743 28.557C28.38 28.67 28.024 28.6635 27.675 28.5375L24.4875 27.1875C24.2125 27.3875 23.925 27.575 23.625 27.75C23.325 27.925 23.025 28.075 22.725 28.2L22.275 31.6875C22.225 32.0625 22.0625 32.375 21.7875 32.625C21.5125 32.875 21.1875 33 20.8125 33ZM18.075 23.25C19.525 23.25 20.7625 22.7375 21.7875 21.7125C22.8125 20.6875 23.325 19.45 23.325 18C23.325 16.55 22.8125 15.3125 21.7875 14.2875C20.7625 13.2625 19.525 12.75 18.075 12.75C16.6 12.75 15.356 13.2625 14.343 14.2875C13.33 15.3125 12.824 16.55 12.825 18C12.825 19.45 13.331 20.6875 14.343 21.7125C15.355 22.7375 16.599 23.25 18.075 23.25Z" fill="white"/>
</g>
</svg>
