<svg width="36" height="36" viewBox="0 0 36 36" fill="none" xmlns="http://www.w3.org/2000/svg">
<g id="Icons / material-symbols:team-dashboard">
<path id="Vector" d="M7.5 31.5C6.675 31.5 5.9685 31.206 5.3805 30.618C4.7925 30.03 4.499 29.324 4.5 28.5V19.125H15V31.5H7.5ZM18 31.5V19.125H31.5V28.5C31.5 29.325 31.206 30.0315 30.618 30.6195C30.03 31.2075 29.324 31.501 28.5 31.5H18ZM4.5 16.125V7.5C4.5 6.675 4.794 5.9685 5.382 5.3805C5.97 4.7925 6.676 4.499 7.5 4.5H28.5C29.325 4.5 30.0315 4.794 30.6195 5.382C31.2075 5.97 31.501 6.676 31.5 7.5V16.125H4.5Z" fill="white"/>
</g>
</svg>
