<svg width="34" height="34" viewBox="0 0 34 34" fill="none" xmlns="http://www.w3.org/2000/svg">
<g id="mdi:bell-notification">
<path id="Vector" d="M29.75 9.20832C29.75 11.9425 27.5258 14.1667 24.7917 14.1667C22.0575 14.1667 19.8333 11.9425 19.8333 9.20832C19.8333 6.47415 22.0575 4.24999 24.7917 4.24999C27.5258 4.24999 29.75 6.47415 29.75 9.20832ZM26.9167 16.7025C26.2083 16.8867 25.5 17 24.7917 17C22.7263 16.9962 20.7467 16.1741 19.2863 14.7137C17.8259 13.2533 17.0037 11.2736 17 9.20832C17 7.12582 17.8217 5.24165 19.125 3.83915C18.8679 3.524 18.5437 3.27018 18.1761 3.09617C17.8085 2.92217 17.4067 2.83237 17 2.83332C15.4417 2.83332 14.1667 4.10832 14.1667 5.66665V6.07749C9.95917 7.32415 7.08333 11.1917 7.08333 15.5833V24.0833L4.25 26.9167V28.3333H29.75V26.9167L26.9167 24.0833V16.7025ZM17 32.5833C18.5725 32.5833 19.8333 31.3225 19.8333 29.75H14.1667C14.1667 30.5014 14.4652 31.2221 14.9965 31.7535C15.5279 32.2848 16.2486 32.5833 17 32.5833Z" fill="#0D30AC"/>
</g>
</svg>
