<svg width="30" height="30" viewBox="0 0 30 30" fill="none" xmlns="http://www.w3.org/2000/svg">
<path id="Vector" d="M15.2795 27C21.6668 27 26.8403 21.63 26.8403 15C26.8403 8.37 21.6668 3 15.2795 3C8.89222 3 3.7188 8.37 3.7188 15C3.7188 21.63 8.89222 27 15.2795 27ZM15.2795 0C23.2275 0 29.7304 6.75 29.7304 15C29.7304 23.25 23.2275 30 15.2795 30C7.28817 30 0.828613 23.25 0.828613 15C0.828613 6.75 7.33152 0 15.2795 0ZM20.0483 8.7L15.7131 16.5H13.8344V7.5H16.0021V11.475L18.1697 7.575L20.0483 8.7Z" fill="black"/>
</svg>
