<svg width="52" height="38" viewBox="0 0 52 38" fill="none" xmlns="http://www.w3.org/2000/svg">
<path id="Vector" d="M23.3333 37.3333H12.8333C9.29445 37.3333 6.27045 36.1083 3.76133 33.6583C1.25222 31.2083 -0.00155411 28.2139 1.44568e-06 24.675C1.44568e-06 21.6417 0.91389 18.9389 2.74167 16.5667C4.56945 14.1944 6.96111 12.6778 9.91667 12.0167C10.8889 8.43889 12.8333 5.54167 15.75 3.325C18.6667 1.10833 21.9722 0 25.6667 0C30.2167 0 34.0768 1.58511 37.247 4.75533C40.4172 7.92556 42.0016 11.7849 42 16.3333C44.6833 16.6444 46.9101 17.8018 48.6803 19.8053C50.4506 21.8089 51.3349 24.1516 51.3333 26.8333C51.3333 29.75 50.3121 32.2296 48.2697 34.272C46.2272 36.3144 43.7484 37.3349 40.8333 37.3333H28V20.65L31.7333 24.2667L35 21L25.6667 11.6667L16.3333 21L19.6 24.2667L23.3333 20.65V37.3333Z" fill="black"/>
</svg>
